<?xml version="1.0" encoding="utf-8"?><svg xmlns="http://www.w3.org/2000/svg" xmlns:xlink="http://www.w3.org/1999/xlink"><symbol viewBox="0 0 30 30" id="altnavigateright" xmlns="http://www.w3.org/2000/svg"><path fill="currentColor" d="M9.4 0H5.6l15 15-15 15h3.8l15-15-15-15z"/></symbol><symbol xmlns="http://www.w3.org/2000/svg" viewBox="0 0 100 100" id="github"><path fill="currentColor" d="M50 3.2c-26.5 0-48 21.5-48 48 0 21.2 13.8 39.2 32.8 45.5 2.4.4 3.2-1 3.2-2.3v-8.9c-13.4 2.9-16.1-5.7-16.1-5.7-2.2-5.5-5.3-7-5.3-7-4.4-3 .3-2.9.3-2.9 4.8.3 7.4 4.9 7.4 4.9 4.3 7.3 11.2 5.2 14 4 .4-3.1 1.7-5.2 3-6.4-10.7-1.2-21.9-5.3-21.9-23.7 0-5.2 1.9-9.5 4.9-12.9-.5-1.2-2.1-6.1.5-12.7 0 0 4-1.3 13.2 4.9 3.8-1.1 7.9-1.6 12-1.6s8.2.6 12 1.6c9.2-6.2 13.2-4.9 13.2-4.9 2.6 6.6 1 11.5.5 12.7 3.1 3.4 4.9 7.6 4.9 12.9 0 18.4-11.2 22.5-21.9 23.7 1.7 1.5 3.3 4.4 3.3 8.9v13.2c0 1.3.8 2.8 3.2 2.3C84.3 90.4 98 72.4 98 51.2c0-26.5-21.5-48-48-48z"/></symbol><symbol xmlns="http://www.w3.org/2000/svg" viewBox="0 0 30 30" id="instagram"><path fill="currentColor" d="M18.4 8.1h-6.8c-2.3.1-3.4 1.2-3.5 3.5v6.8c.1 2.3 1.2 3.4 3.5 3.5h6.8c2.3-.1 3.4-1.2 3.5-3.5V15v-3.4c-.1-2.3-1.2-3.4-3.5-3.5zM15 19.3c-2.4 0-4.3-1.9-4.3-4.3s1.9-4.3 4.3-4.3 4.3 1.9 4.3 4.3-1.9 4.3-4.3 4.3zm4.5-7.8c-.6 0-1-.5-1-1s.5-1 1-1c.6 0 1 .5 1 1s-.4 1-1 1zM17.8 15c0 1.6-1.3 2.8-2.8 2.8-1.6 0-2.8-1.3-2.8-2.8s1.3-2.8 2.8-2.8c1.6 0 2.8 1.2 2.8 2.8zM15 .5C7 .5.5 7 .5 15S7 29.5 15 29.5 29.5 23 29.5 15 23 .5 15 .5zm8.4 18c-.1 3.1-1.9 4.8-4.9 4.9-.9 0-1.2.1-3.5.1s-2.6 0-3.5-.1c-3.1-.1-4.8-1.8-4.9-4.9 0-.9-.1-1.2-.1-3.5s0-2.6.1-3.5c.1-3.1 1.8-4.8 4.9-4.9.9 0 1.2-.1 3.5-.1s2.6 0 3.5.1c3.1.1 4.8 1.9 4.9 4.9 0 .9.1 1.2.1 3.5s-.1 2.6-.1 3.5z"/></symbol><symbol xmlns="http://www.w3.org/2000/svg" viewBox="0 0 30 30" id="twitter"><path fill="currentColor" d="M15 .5C7 .5.5 7 .5 15S7 29.5 15 29.5 29.5 23 29.5 15 23 .5 15 .5zm7.3 11.7c.2 4.9-3.4 10.3-9.9 10.3-2 0-3.8-.6-5.3-1.6 1.8.2 3.7-.3 5.1-1.4-1.5 0-2.8-1-3.2-2.4.5.1 1.1.1 1.6-.1-1.7-.3-2.8-1.8-2.8-3.4.5.3 1 .4 1.6.4-1.5-1-2-3.1-1.1-4.6 1.7 2.1 4.3 3.5 7.2 3.6-.5-2.2 1.1-4.3 3.4-4.3 1 0 1.9.4 2.5 1.1.8-.2 1.5-.4 2.2-.8-.3.8-.8 1.5-1.5 1.9.7-.1 1.4-.3 2-.5-.5.7-1.1 1.3-1.8 1.8z"/></symbol></svg>